HIERARCHY
ROOT Hips
{
 OFFSET 0.000000 0.000000 0.000000
 CHANNELS 6 Xposition Yposition Zposition Yrotation Xrotation Zrotation
 JOINT Chest
 {
  OFFSET 0.000000 9.588913 -0.003946
  CHANNELS 3 Yrotation Xrotation Zrotation
  JOINT Chest2
  {
   OFFSET 0.000000 9.541882 0.008053
   CHANNELS 3 Yrotation Xrotation Zrotation
   JOINT Chest3
   {
    OFFSET 0.000000 9.501360 0.000000
    CHANNELS 3 Yrotation Xrotation Zrotation
    JOINT Chest4
    {
     OFFSET 0.000000 9.491660 0.000000
     CHANNELS 3 Yrotation Xrotation Zrotation
     JOINT Neck
     {
      OFFSET 0.000000 14.331917 0.000000
      CHANNELS 3 Yrotation Xrotation Zrotation
      JOINT Head
      {
       OFFSET 0.000000 8.884799 0.017034
       CHANNELS 3 Yrotation Xrotation Zrotation
       End Site
       {
        OFFSET 0.000000 16.896195 0.008993
       }
      }
     }
     JOINT RightCollar
     {
      OFFSET -2.923010 9.499495 0.000000
      CHANNELS 3 Yrotation Xrotation Zrotation
      JOINT RightShoulder
      {
       OFFSET -13.795216 0.000000 0.000000
       CHANNELS 3 Yrotation Xrotation Zrotation
       JOINT RightElbow
       {
        OFFSET -30.272209 0.000000 0.000000
        CHANNELS 3 Yrotation Xrotation Zrotation
        JOINT RightWrist
        {
         OFFSET -24.478199 0.000000 0.000000
         CHANNELS 3 Yrotation Xrotation Zrotation
         End Site
         {
          OFFSET -18.090752 0.000000 0.000000
         }
        }
       }
      }
     }
     JOINT LeftCollar
     {
      OFFSET 2.923010 9.499495 0.000000
      CHANNELS 3 Yrotation Xrotation Zrotation
      JOINT LeftShoulder
      {
       OFFSET 13.795216 0.000000 0.000000
       CHANNELS 3 Yrotation Xrotation Zrotation
       JOINT LeftElbow
       {
        OFFSET 30.272209 0.000000 0.000000
        CHANNELS 3 Yrotation Xrotation Zrotation
        JOINT LeftWrist
        {
         OFFSET 24.478199 0.000000 0.000000
         CHANNELS 3 Yrotation Xrotation Zrotation
         End Site
         {
          OFFSET 18.090752 0.000000 0.000000
         }
        }
       }
      }
     }
    }
   }
  }
 }
 JOINT RightHip
 {
  OFFSET -7.826875 0.019532 0.001973
  CHANNELS 3 Yrotation Xrotation Zrotation
  JOINT RightKnee
  {
   OFFSET 0.000000 -40.546152 -0.001885
   CHANNELS 3 Yrotation Xrotation Zrotation
   JOINT RightAnkle
   {
    OFFSET 0.000000 -39.417092 -0.003189
    CHANNELS 3 Yrotation Xrotation Zrotation
    JOINT RightToe
    {
     OFFSET 0.000000 -7.579396 17.243563
     CHANNELS 3 Yrotation Xrotation Zrotation
     End Site
     {
      OFFSET 0.000000 -1.500329 6.694466
     }
    }
   }
  }
 }
 JOINT LeftHip
 {
  OFFSET 7.826875 0.019532 0.001973
  CHANNELS 3 Yrotation Xrotation Zrotation
  JOINT LeftKnee
  {
   OFFSET 0.000000 -40.546152 -0.001885
   CHANNELS 3 Yrotation Xrotation Zrotation
   JOINT LeftAnkle
   {
    OFFSET 0.000000 -39.417092 -0.003189
    CHANNELS 3 Yrotation Xrotation Zrotation
    JOINT LeftToe
    {
     OFFSET 0.000000 -7.579396 17.243563
     CHANNELS 3 Yrotation Xrotation Zrotation
     End Site
     {
      OFFSET 0.000000 -1.500329 6.694466
     }
    }
   }
  }
 }
}
MOTION
Frames: 5
Frame Time: 0.008333
-13.406005 88.224673 -20.126746 137.929990 -2.372637 1.031413 2.776652 5.686309 1.440943 1.573316 3.279586 0.783317 1.974464 4.095999 0.993629 1.573320 3.279586 0.783316 1.275018 25.221251 -0.571548 1.516214 1.662079 -0.912115 6.257494 -3.858425 -4.133091 -3.256932 -28.829286 81.861558 13.832397 -44.914566 25.135624 21.821562 -31.577936 -5.544841 -14.089569 -4.082947 -0.653716 0.525506 -34.977315 -92.325716 -8.207250 -23.006809 -25.815885 -15.706279 -19.481919 9.855609 -17.090954 -0.321970 -10.702369 16.939130 1.235452 -2.773136 20.608287 -5.514371 7.309957 0.063821 0.007095 0.024666 19.435529 -3.430547 8.401893 7.972493 3.473478 0.487286 6.752580 1.940525 -6.507771 -0.044009 0.085210 -0.047004
-13.284775 88.227612 -20.239675 137.887995 -2.480855 1.014227 2.782862 5.591383 1.412691 1.576450 3.227036 0.766270 1.978094 4.030381 0.972100 1.576454 3.227036 0.766269 1.315274 25.213879 -0.542880 1.553411 1.653383 -0.890137 6.040691 -3.720374 -4.092246 -3.330593 -28.336953 82.017485 14.792173 -44.877410 25.388327 21.913830 -31.490632 -5.738421 -13.875314 -3.947199 -0.616756 0.553157 -34.521444 -92.324085 -8.894692 -23.015980 -26.410423 -15.869956 -19.525506 10.286154 -17.091565 -0.078336 -10.740105 16.944110 1.191714 -2.780909 20.593944 -5.594872 7.257148 0.077145 0.002665 0.035688 19.393863 -3.165704 8.506993 8.011758 3.394516 0.473190 6.796315 1.846328 -6.566005 -0.044060 0.108926 -0.047370
-13.162666 88.230666 -20.355886 137.851118 -2.597285 1.004831 2.782582 5.505730 1.379418 1.579090 3.174511 0.750580 1.981124 3.964789 0.952264 1.579094 3.174511 0.750580 1.353203 25.205328 -0.513796 1.587974 1.643196 -0.867174 5.798399 -3.572599 -4.068041 -3.405525 -27.865903 82.201612 15.785866 -44.787156 25.582682 22.058558 -31.395246 -5.945470 -13.630001 -3.818250 -0.572633 0.566678 -34.067547 -92.341275 -9.587662 -22.995604 -26.976031 -16.034862 -19.546188 10.775363 -17.095984 0.172303 -10.784948 16.949006 1.147740 -2.786760 20.592142 -5.673182 7.207845 0.065328 -0.002456 0.035738 19.341549 -2.890526 8.602592 8.057642 3.307060 0.456351 6.842458 1.795449 -6.613955 -0.045933 0.096247 -0.049183
-13.039676 88.233818 -20.472639 137.815963 -2.710551 0.991176 2.781571 5.415921 1.349953 1.579930 3.121915 0.736094 1.981917 3.899107 0.933918 1.579933 3.121915 0.736094 1.391404 25.197223 -0.484091 1.622694 1.633580 -0.843599 5.544749 -3.431722 -4.047740 -3.485241 -27.400392 82.404191 16.817929 -44.640988 25.712905 22.260647 -31.289309 -6.197823 -13.353750 -3.706973 -0.519123 0.556953 -33.598242 -92.367064 -10.284118 -22.978944 -27.528228 -16.187052 -19.529027 11.336724 -17.096467 0.422828 -10.827478 16.955148 1.106617 -2.791521 20.572353 -5.753269 7.154451 0.063021 -0.007345 0.039625 19.280253 -2.616963 8.702547 8.112517 3.225021 0.439974 6.888471 1.719553 -6.664523 -0.047857 0.100708 -0.051116
-12.915227 88.237279 -20.590980 137.784286 -2.828678 0.973714 2.778012 5.326855 1.323136 1.579518 3.069808 0.722523 1.981160 3.834036 0.916708 1.579522 3.069808 0.722523 1.429760 25.192130 -0.454486 1.657626 1.627717 -0.820177 5.293711 -3.308132 -4.019166 -3.564189 -26.918149 82.608399 17.899048 -44.458572 25.781880 22.514240 -31.168165 -6.518516 -13.059852 -3.614581 -0.457243 0.516481 -33.106243 -92.394066 -10.983793 -23.012168 -28.084527 -16.301827 -19.466757 11.972120 -17.090644 0.677585 -10.870899 16.964287 1.070345 -2.796726 20.568850 -5.837506 7.098559 0.066410 -0.015346 0.045425 19.208054 -2.339279 8.807096 8.168424 3.145820 0.423937 6.940667 1.643813 -6.714452 -0.050761 0.102201 -0.054072
